<mxfile host="app.diagrams.net" modified="2024-03-05T19:19:54.944Z" agent="Mozilla/5.0 (Windows NT 10.0; Win64; x64) AppleWebKit/537.36 (KHTML, like Gecko) Chrome/122.0.0.0 Safari/537.36" etag="KRwYANZNqxaLx_5rOCLl" version="23.1.7" type="github">
  <diagram name="Page-1" id="2YBvvXClWsGukQMizWep">
    <mxGraphModel dx="1383" dy="732" grid="1" gridSize="10" guides="1" tooltips="1" connect="1" arrows="1" fold="1" page="1" pageScale="1" pageWidth="1100" pageHeight="850" math="0" shadow="0">
      <root>
        <mxCell id="0" />
        <mxCell id="1" parent="0" />
        <mxCell id="r72Okk3l7TpYCggT--TZ-46" value="" style="rounded=0;whiteSpace=wrap;html=1;fillColor=#e1d5e7;dashed=1;dashPattern=1 1;strokeColor=#9673a6;" vertex="1" parent="1">
          <mxGeometry x="243" y="244" width="510" height="55" as="geometry" />
        </mxCell>
        <mxCell id="r72Okk3l7TpYCggT--TZ-34" value="" style="rounded=0;whiteSpace=wrap;html=1;fillColor=#ffcc99;dashed=1;dashPattern=1 1;strokeColor=#36393d;" vertex="1" parent="1">
          <mxGeometry x="175" y="445" width="120" height="46" as="geometry" />
        </mxCell>
        <mxCell id="r72Okk3l7TpYCggT--TZ-47" value="" style="rounded=0;whiteSpace=wrap;html=1;fillColor=#ffcccc;dashed=1;dashPattern=1 1;strokeColor=#36393d;" vertex="1" parent="1">
          <mxGeometry x="175" y="326" width="120" height="95" as="geometry" />
        </mxCell>
        <mxCell id="aM9ryv3xv72pqoxQDRHE-1" value="Web Application" style="shape=umlLifeline;perimeter=lifelinePerimeter;whiteSpace=wrap;html=1;container=0;dropTarget=0;collapsible=0;recursiveResize=0;outlineConnect=0;portConstraint=eastwest;newEdgeStyle={&quot;edgeStyle&quot;:&quot;elbowEdgeStyle&quot;,&quot;elbow&quot;:&quot;vertical&quot;,&quot;curved&quot;:0,&quot;rounded&quot;:0};fontSize=10;" parent="1" vertex="1">
          <mxGeometry x="101" y="251" width="100" height="410" as="geometry" />
        </mxCell>
        <mxCell id="aM9ryv3xv72pqoxQDRHE-2" value="" style="html=1;points=[];perimeter=orthogonalPerimeter;outlineConnect=0;targetShapes=umlLifeline;portConstraint=eastwest;newEdgeStyle={&quot;edgeStyle&quot;:&quot;elbowEdgeStyle&quot;,&quot;elbow&quot;:&quot;vertical&quot;,&quot;curved&quot;:0,&quot;rounded&quot;:0};" parent="aM9ryv3xv72pqoxQDRHE-1" vertex="1">
          <mxGeometry x="45" y="80" width="10" height="310" as="geometry" />
        </mxCell>
        <mxCell id="aM9ryv3xv72pqoxQDRHE-5" value="Resource Server&lt;br style=&quot;font-size: 10px;&quot;&gt;(Token Endpoint)" style="shape=umlLifeline;perimeter=lifelinePerimeter;whiteSpace=wrap;html=1;container=0;dropTarget=0;collapsible=0;recursiveResize=0;outlineConnect=0;portConstraint=eastwest;newEdgeStyle={&quot;edgeStyle&quot;:&quot;elbowEdgeStyle&quot;,&quot;elbow&quot;:&quot;vertical&quot;,&quot;curved&quot;:0,&quot;rounded&quot;:0};fontSize=10;" parent="1" vertex="1">
          <mxGeometry x="271" y="251" width="100" height="410" as="geometry" />
        </mxCell>
        <mxCell id="aM9ryv3xv72pqoxQDRHE-6" value="" style="html=1;points=[];perimeter=orthogonalPerimeter;outlineConnect=0;targetShapes=umlLifeline;portConstraint=eastwest;newEdgeStyle={&quot;edgeStyle&quot;:&quot;elbowEdgeStyle&quot;,&quot;elbow&quot;:&quot;vertical&quot;,&quot;curved&quot;:0,&quot;rounded&quot;:0};" parent="aM9ryv3xv72pqoxQDRHE-5" vertex="1">
          <mxGeometry x="45" y="80" width="10" height="310" as="geometry" />
        </mxCell>
        <mxCell id="aM9ryv3xv72pqoxQDRHE-7" value="Request Grant" style="html=1;verticalAlign=bottom;endArrow=block;edgeStyle=elbowEdgeStyle;elbow=vertical;curved=0;rounded=0;fontSize=10;" parent="1" edge="1">
          <mxGeometry x="-0.4862" relative="1" as="geometry">
            <mxPoint x="156" y="343" as="sourcePoint" />
            <Array as="points">
              <mxPoint x="254" y="343" />
            </Array>
            <mxPoint x="483" y="343" as="targetPoint" />
            <mxPoint as="offset" />
          </mxGeometry>
        </mxCell>
        <mxCell id="aM9ryv3xv72pqoxQDRHE-10" value="Authorization Code" style="html=1;verticalAlign=bottom;endArrow=none;dashed=1;endSize=8;edgeStyle=elbowEdgeStyle;elbow=vertical;curved=0;rounded=0;startArrow=open;startFill=0;endFill=0;fontSize=10;" parent="1" target="r72Okk3l7TpYCggT--TZ-4" edge="1">
          <mxGeometry x="-0.4932" relative="1" as="geometry">
            <mxPoint x="316" y="365" as="targetPoint" />
            <Array as="points">
              <mxPoint x="241" y="365" />
            </Array>
            <mxPoint x="156" y="365" as="sourcePoint" />
            <mxPoint as="offset" />
          </mxGeometry>
        </mxCell>
        <mxCell id="r72Okk3l7TpYCggT--TZ-6" value="AWS Credentials&lt;br style=&quot;font-size: 10px;&quot;&gt;(Cognito Identity Pool)" style="shape=umlLifeline;perimeter=lifelinePerimeter;whiteSpace=wrap;html=1;container=0;dropTarget=0;collapsible=0;recursiveResize=0;outlineConnect=0;portConstraint=eastwest;newEdgeStyle={&quot;edgeStyle&quot;:&quot;elbowEdgeStyle&quot;,&quot;elbow&quot;:&quot;vertical&quot;,&quot;curved&quot;:0,&quot;rounded&quot;:0};fontSize=10;" vertex="1" parent="1">
          <mxGeometry x="608" y="251" width="100" height="410" as="geometry" />
        </mxCell>
        <mxCell id="r72Okk3l7TpYCggT--TZ-7" value="" style="html=1;points=[];perimeter=orthogonalPerimeter;outlineConnect=0;targetShapes=umlLifeline;portConstraint=eastwest;newEdgeStyle={&quot;edgeStyle&quot;:&quot;elbowEdgeStyle&quot;,&quot;elbow&quot;:&quot;vertical&quot;,&quot;curved&quot;:0,&quot;rounded&quot;:0};" vertex="1" parent="r72Okk3l7TpYCggT--TZ-6">
          <mxGeometry x="45" y="80" width="10" height="310" as="geometry" />
        </mxCell>
        <mxCell id="r72Okk3l7TpYCggT--TZ-23" style="rounded=0;orthogonalLoop=1;jettySize=auto;html=1;dashed=1;endArrow=none;endFill=0;dashPattern=1 1;entryX=0.5;entryY=-0.002;entryDx=0;entryDy=0;entryPerimeter=0;" edge="1" parent="1" source="r72Okk3l7TpYCggT--TZ-12" target="r72Okk3l7TpYCggT--TZ-4">
          <mxGeometry relative="1" as="geometry">
            <mxPoint x="510" y="160" as="targetPoint" />
            <mxPoint x="340.36958321275506" y="235.3580078690211" as="sourcePoint" />
          </mxGeometry>
        </mxCell>
        <mxCell id="r72Okk3l7TpYCggT--TZ-12" value="Define&lt;br&gt;App Clients / Attach Custom Scopes" style="ellipse;whiteSpace=wrap;html=1;fontSize=9;dashed=1;dashPattern=1 4;" vertex="1" parent="1">
          <mxGeometry x="443" y="151" width="97" height="40" as="geometry" />
        </mxCell>
        <mxCell id="r72Okk3l7TpYCggT--TZ-13" value="Define&lt;br&gt;Federated IdP / User Groups" style="ellipse;whiteSpace=wrap;html=1;fontSize=9;dashed=1;dashPattern=1 4;" vertex="1" parent="1">
          <mxGeometry x="530" y="191" width="97" height="40" as="geometry" />
        </mxCell>
        <mxCell id="r72Okk3l7TpYCggT--TZ-14" value="Define&lt;br&gt;Role Mappings" style="ellipse;whiteSpace=wrap;html=1;fontSize=9;dashed=1;dashPattern=1 4;" vertex="1" parent="1">
          <mxGeometry x="663" y="191" width="97" height="40" as="geometry" />
        </mxCell>
        <mxCell id="r72Okk3l7TpYCggT--TZ-15" value="AWS IAM&lt;br&gt;(App Assumes Role)" style="shape=umlLifeline;perimeter=lifelinePerimeter;whiteSpace=wrap;html=1;container=0;dropTarget=0;collapsible=0;recursiveResize=0;outlineConnect=0;portConstraint=eastwest;newEdgeStyle={&quot;edgeStyle&quot;:&quot;elbowEdgeStyle&quot;,&quot;elbow&quot;:&quot;vertical&quot;,&quot;curved&quot;:0,&quot;rounded&quot;:0};fontSize=10;" vertex="1" parent="1">
          <mxGeometry x="776" y="251" width="100" height="410" as="geometry" />
        </mxCell>
        <mxCell id="r72Okk3l7TpYCggT--TZ-16" value="" style="html=1;points=[];perimeter=orthogonalPerimeter;outlineConnect=0;targetShapes=umlLifeline;portConstraint=eastwest;newEdgeStyle={&quot;edgeStyle&quot;:&quot;elbowEdgeStyle&quot;,&quot;elbow&quot;:&quot;vertical&quot;,&quot;curved&quot;:0,&quot;rounded&quot;:0};" vertex="1" parent="r72Okk3l7TpYCggT--TZ-15">
          <mxGeometry x="45" y="80" width="10" height="310" as="geometry" />
        </mxCell>
        <mxCell id="r72Okk3l7TpYCggT--TZ-4" value="Authorization Server / IdP&lt;br style=&quot;font-size: 10px;&quot;&gt;(Cognito User Pool)" style="shape=umlLifeline;perimeter=lifelinePerimeter;whiteSpace=wrap;html=1;container=0;dropTarget=0;collapsible=0;recursiveResize=0;outlineConnect=0;portConstraint=eastwest;newEdgeStyle={&quot;edgeStyle&quot;:&quot;elbowEdgeStyle&quot;,&quot;elbow&quot;:&quot;vertical&quot;,&quot;curved&quot;:0,&quot;rounded&quot;:0};fontSize=10;" vertex="1" parent="1">
          <mxGeometry x="440" y="251" width="100" height="410" as="geometry" />
        </mxCell>
        <mxCell id="r72Okk3l7TpYCggT--TZ-5" value="" style="html=1;points=[];perimeter=orthogonalPerimeter;outlineConnect=0;targetShapes=umlLifeline;portConstraint=eastwest;newEdgeStyle={&quot;edgeStyle&quot;:&quot;elbowEdgeStyle&quot;,&quot;elbow&quot;:&quot;vertical&quot;,&quot;curved&quot;:0,&quot;rounded&quot;:0};" vertex="1" parent="r72Okk3l7TpYCggT--TZ-4">
          <mxGeometry x="45" y="80" width="10" height="310" as="geometry" />
        </mxCell>
        <mxCell id="r72Okk3l7TpYCggT--TZ-24" style="rounded=0;orthogonalLoop=1;jettySize=auto;html=1;dashed=1;endArrow=none;endFill=0;entryX=0.37;entryY=0;entryDx=0;entryDy=0;entryPerimeter=0;dashPattern=1 1;exitX=0;exitY=1;exitDx=0;exitDy=0;" edge="1" parent="1" source="r72Okk3l7TpYCggT--TZ-13">
          <mxGeometry relative="1" as="geometry">
            <mxPoint x="504" y="251" as="targetPoint" />
            <mxPoint x="537" y="235" as="sourcePoint" />
          </mxGeometry>
        </mxCell>
        <mxCell id="r72Okk3l7TpYCggT--TZ-25" style="rounded=0;orthogonalLoop=1;jettySize=auto;html=1;dashed=1;endArrow=none;endFill=0;entryX=0.37;entryY=0;entryDx=0;entryDy=0;entryPerimeter=0;dashPattern=1 1;exitX=0;exitY=1;exitDx=0;exitDy=0;" edge="1" parent="1" source="r72Okk3l7TpYCggT--TZ-14">
          <mxGeometry relative="1" as="geometry">
            <mxPoint x="647" y="251" as="targetPoint" />
            <mxPoint x="680" y="235" as="sourcePoint" />
          </mxGeometry>
        </mxCell>
        <mxCell id="r72Okk3l7TpYCggT--TZ-26" value="API Gateway&lt;br style=&quot;font-size: 10px;&quot;&gt;(Cognito Authorizer)" style="shape=umlLifeline;perimeter=lifelinePerimeter;whiteSpace=wrap;html=1;container=0;dropTarget=0;collapsible=0;recursiveResize=0;outlineConnect=0;portConstraint=eastwest;newEdgeStyle={&quot;edgeStyle&quot;:&quot;elbowEdgeStyle&quot;,&quot;elbow&quot;:&quot;vertical&quot;,&quot;curved&quot;:0,&quot;rounded&quot;:0};fontSize=10;" vertex="1" parent="1">
          <mxGeometry x="946" y="251" width="100" height="410" as="geometry" />
        </mxCell>
        <mxCell id="r72Okk3l7TpYCggT--TZ-27" value="" style="html=1;points=[];perimeter=orthogonalPerimeter;outlineConnect=0;targetShapes=umlLifeline;portConstraint=eastwest;newEdgeStyle={&quot;edgeStyle&quot;:&quot;elbowEdgeStyle&quot;,&quot;elbow&quot;:&quot;vertical&quot;,&quot;curved&quot;:0,&quot;rounded&quot;:0};" vertex="1" parent="r72Okk3l7TpYCggT--TZ-26">
          <mxGeometry x="45" y="80" width="10" height="310" as="geometry" />
        </mxCell>
        <mxCell id="r72Okk3l7TpYCggT--TZ-36" value="Cognito" style="outlineConnect=0;dashed=0;verticalLabelPosition=bottom;verticalAlign=top;align=center;html=1;shape=mxgraph.aws3.cognito;fillColor=#AD688B;gradientColor=none;fontSize=7;" vertex="1" parent="1">
          <mxGeometry x="726" y="247.5" width="20" height="19.5" as="geometry" />
        </mxCell>
        <mxCell id="r72Okk3l7TpYCggT--TZ-38" value="Request Access Token with Scopes" style="html=1;verticalAlign=bottom;endArrow=block;edgeStyle=elbowEdgeStyle;elbow=vertical;curved=0;rounded=0;fontSize=9;" edge="1" parent="1" target="aM9ryv3xv72pqoxQDRHE-6">
          <mxGeometry x="0.05" y="1" relative="1" as="geometry">
            <mxPoint x="156" y="392" as="sourcePoint" />
            <Array as="points">
              <mxPoint x="241" y="392" />
            </Array>
            <mxPoint x="310" y="392" as="targetPoint" />
            <mxPoint as="offset" />
          </mxGeometry>
        </mxCell>
        <mxCell id="r72Okk3l7TpYCggT--TZ-39" value="Return Access Token with Scopes" style="html=1;verticalAlign=bottom;endArrow=none;dashed=1;endSize=8;edgeStyle=elbowEdgeStyle;elbow=vertical;curved=0;rounded=0;startArrow=open;startFill=0;endFill=0;fontSize=9;" edge="1" parent="1" target="aM9ryv3xv72pqoxQDRHE-6">
          <mxGeometry x="0.05" relative="1" as="geometry">
            <mxPoint x="300" y="411" as="targetPoint" />
            <Array as="points">
              <mxPoint x="241" y="414" />
            </Array>
            <mxPoint x="156" y="414" as="sourcePoint" />
            <mxPoint as="offset" />
          </mxGeometry>
        </mxCell>
        <mxCell id="r72Okk3l7TpYCggT--TZ-40" style="rounded=0;orthogonalLoop=1;jettySize=auto;html=1;dashed=1;endArrow=none;endFill=0;entryX=0.172;entryY=0.097;entryDx=0;entryDy=0;entryPerimeter=0;dashPattern=1 1;exitX=0.5;exitY=1;exitDx=0;exitDy=0;" edge="1" parent="1" source="r72Okk3l7TpYCggT--TZ-41" target="r72Okk3l7TpYCggT--TZ-46">
          <mxGeometry relative="1" as="geometry">
            <mxPoint x="220" y="140.35" as="targetPoint" />
            <mxPoint x="262.6089631038478" y="116.00202108351559" as="sourcePoint" />
          </mxGeometry>
        </mxCell>
        <mxCell id="r72Okk3l7TpYCggT--TZ-41" value="Define / Use&lt;br&gt;Custom Scopes" style="ellipse;whiteSpace=wrap;html=1;fontSize=9;dashed=1;dashPattern=1 4;" vertex="1" parent="1">
          <mxGeometry x="330" y="191" width="99" height="40" as="geometry" />
        </mxCell>
        <mxCell id="r72Okk3l7TpYCggT--TZ-44" value="Request Access Token" style="html=1;verticalAlign=bottom;endArrow=block;edgeStyle=elbowEdgeStyle;elbow=vertical;curved=0;rounded=0;fontSize=10;" edge="1" parent="1" target="r72Okk3l7TpYCggT--TZ-5">
          <mxGeometry x="-0.4862" relative="1" as="geometry">
            <mxPoint x="156" y="462" as="sourcePoint" />
            <Array as="points" />
            <mxPoint x="460" y="461" as="targetPoint" />
            <mxPoint as="offset" />
          </mxGeometry>
        </mxCell>
        <mxCell id="r72Okk3l7TpYCggT--TZ-45" value="Access Token" style="html=1;verticalAlign=bottom;endArrow=none;dashed=1;endSize=8;edgeStyle=elbowEdgeStyle;elbow=vertical;curved=0;rounded=0;startArrow=open;startFill=0;endFill=0;fontSize=10;" edge="1" parent="1" target="r72Okk3l7TpYCggT--TZ-5">
          <mxGeometry x="-0.5474" relative="1" as="geometry">
            <mxPoint x="316" y="484" as="targetPoint" />
            <Array as="points">
              <mxPoint x="241" y="484" />
            </Array>
            <mxPoint x="156" y="484" as="sourcePoint" />
            <mxPoint as="offset" />
          </mxGeometry>
        </mxCell>
        <mxCell id="r72Okk3l7TpYCggT--TZ-48" value="Implicit Grant" style="text;html=1;align=center;verticalAlign=middle;whiteSpace=wrap;rounded=0;fontSize=9;fontStyle=2" vertex="1" parent="1">
          <mxGeometry x="190" y="492" width="90" height="10" as="geometry" />
        </mxCell>
        <mxCell id="r72Okk3l7TpYCggT--TZ-49" value="Authorization Code Grant" style="text;html=1;align=center;verticalAlign=middle;whiteSpace=wrap;rounded=0;fontSize=9;fontStyle=2" vertex="1" parent="1">
          <mxGeometry x="180" y="423" width="110" height="8" as="geometry" />
        </mxCell>
        <mxCell id="r72Okk3l7TpYCggT--TZ-52" value="Retrieve Cognito Role Claims" style="html=1;verticalAlign=bottom;endArrow=block;edgeStyle=elbowEdgeStyle;elbow=vertical;curved=0;rounded=0;fontSize=10;" edge="1" parent="1">
          <mxGeometry y="1" relative="1" as="geometry">
            <mxPoint x="495" y="572" as="sourcePoint" />
            <Array as="points" />
            <mxPoint x="653" y="572" as="targetPoint" />
            <mxPoint as="offset" />
          </mxGeometry>
        </mxCell>
        <mxCell id="r72Okk3l7TpYCggT--TZ-50" value="Request ID Token (OIDC)" style="html=1;verticalAlign=bottom;endArrow=block;edgeStyle=elbowEdgeStyle;elbow=vertical;curved=0;rounded=0;fontSize=10;" edge="1" parent="1">
          <mxGeometry x="-0.4801" y="1" relative="1" as="geometry">
            <mxPoint x="156" y="572" as="sourcePoint" />
            <Array as="points">
              <mxPoint x="241" y="572" />
            </Array>
            <mxPoint x="483" y="572" as="targetPoint" />
            <mxPoint as="offset" />
          </mxGeometry>
        </mxCell>
        <mxCell id="r72Okk3l7TpYCggT--TZ-51" value="ID Token / Cognito Role Claims" style="html=1;verticalAlign=bottom;endArrow=none;dashed=1;endSize=8;edgeStyle=elbowEdgeStyle;elbow=vertical;curved=0;rounded=0;startArrow=open;startFill=0;endFill=0;fontSize=10;" edge="1" parent="1">
          <mxGeometry x="-0.4679" relative="1" as="geometry">
            <mxPoint x="483" y="596" as="targetPoint" />
            <Array as="points">
              <mxPoint x="241" y="596" />
            </Array>
            <mxPoint x="156" y="596" as="sourcePoint" />
            <mxPoint as="offset" />
          </mxGeometry>
        </mxCell>
        <mxCell id="r72Okk3l7TpYCggT--TZ-54" value="Return Cognito Role Claims" style="html=1;verticalAlign=bottom;endArrow=none;dashed=1;endSize=8;edgeStyle=elbowEdgeStyle;elbow=vertical;curved=0;rounded=0;startArrow=open;startFill=0;endFill=0;fontSize=10;" edge="1" parent="1">
          <mxGeometry relative="1" as="geometry">
            <mxPoint x="653" y="596" as="targetPoint" />
            <Array as="points">
              <mxPoint x="578" y="596" />
            </Array>
            <mxPoint x="493" y="596" as="sourcePoint" />
          </mxGeometry>
        </mxCell>
        <mxCell id="r72Okk3l7TpYCggT--TZ-56" value="API Access with Access Token" style="html=1;verticalAlign=bottom;endArrow=block;edgeStyle=elbowEdgeStyle;elbow=vertical;curved=0;rounded=0;fontSize=10;startArrow=classic;startFill=1;" edge="1" parent="1">
          <mxGeometry x="-0.7916" relative="1" as="geometry">
            <mxPoint x="155" y="528" as="sourcePoint" />
            <Array as="points">
              <mxPoint x="240" y="528" />
            </Array>
            <mxPoint x="990" y="528" as="targetPoint" />
            <mxPoint as="offset" />
          </mxGeometry>
        </mxCell>
        <mxCell id="r72Okk3l7TpYCggT--TZ-57" value="Access AWS Resources" style="html=1;verticalAlign=bottom;endArrow=block;edgeStyle=elbowEdgeStyle;elbow=vertical;curved=0;rounded=0;fontSize=10;startArrow=classic;startFill=1;" edge="1" parent="1" target="r72Okk3l7TpYCggT--TZ-16">
          <mxGeometry x="-0.7357" relative="1" as="geometry">
            <mxPoint x="155" y="621" as="sourcePoint" />
            <Array as="points">
              <mxPoint x="240" y="621" />
            </Array>
            <mxPoint x="990" y="621" as="targetPoint" />
            <mxPoint as="offset" />
          </mxGeometry>
        </mxCell>
        <mxCell id="r72Okk3l7TpYCggT--TZ-59" value="" style="ellipse;whiteSpace=wrap;html=1;aspect=fixed;" vertex="1" parent="1">
          <mxGeometry x="120" y="562" width="20" height="20" as="geometry" />
        </mxCell>
        <mxCell id="r72Okk3l7TpYCggT--TZ-58" value="1" style="text;html=1;align=center;verticalAlign=middle;whiteSpace=wrap;rounded=0;" vertex="1" parent="1">
          <mxGeometry x="120" y="562" width="20" height="20" as="geometry" />
        </mxCell>
        <mxCell id="r72Okk3l7TpYCggT--TZ-60" value="" style="ellipse;whiteSpace=wrap;html=1;aspect=fixed;" vertex="1" parent="1">
          <mxGeometry x="120" y="586" width="20" height="20" as="geometry" />
        </mxCell>
        <mxCell id="r72Okk3l7TpYCggT--TZ-61" value="3" style="text;html=1;align=center;verticalAlign=middle;whiteSpace=wrap;rounded=0;" vertex="1" parent="1">
          <mxGeometry x="120" y="586" width="20" height="20" as="geometry" />
        </mxCell>
        <mxCell id="r72Okk3l7TpYCggT--TZ-67" value="" style="ellipse;whiteSpace=wrap;html=1;aspect=fixed;" vertex="1" parent="1">
          <mxGeometry x="120" y="496" width="20" height="20" as="geometry" />
        </mxCell>
        <mxCell id="r72Okk3l7TpYCggT--TZ-68" value="3" style="text;html=1;align=center;verticalAlign=middle;whiteSpace=wrap;rounded=0;" vertex="1" parent="1">
          <mxGeometry x="120" y="496" width="20" height="20" as="geometry" />
        </mxCell>
        <mxCell id="r72Okk3l7TpYCggT--TZ-70" value="" style="ellipse;whiteSpace=wrap;html=1;aspect=fixed;" vertex="1" parent="1">
          <mxGeometry x="120" y="426" width="20" height="20" as="geometry" />
        </mxCell>
        <mxCell id="r72Okk3l7TpYCggT--TZ-71" value="2" style="text;html=1;align=center;verticalAlign=middle;whiteSpace=wrap;rounded=0;" vertex="1" parent="1">
          <mxGeometry x="120" y="426" width="20" height="20" as="geometry" />
        </mxCell>
        <mxCell id="r72Okk3l7TpYCggT--TZ-73" value="" style="ellipse;whiteSpace=wrap;html=1;aspect=fixed;" vertex="1" parent="1">
          <mxGeometry x="120" y="611" width="20" height="20" as="geometry" />
        </mxCell>
        <mxCell id="r72Okk3l7TpYCggT--TZ-74" value="3" style="text;html=1;align=center;verticalAlign=middle;whiteSpace=wrap;rounded=0;" vertex="1" parent="1">
          <mxGeometry x="120" y="611" width="20" height="20" as="geometry" />
        </mxCell>
        <mxCell id="r72Okk3l7TpYCggT--TZ-75" value="Authenticate" style="rounded=0;whiteSpace=wrap;html=1;fontSize=9;verticalAlign=middle;dashed=1;dashPattern=1 4;" vertex="1" parent="1">
          <mxGeometry x="10" y="503.5" width="91" height="15" as="geometry" />
        </mxCell>
        <mxCell id="r72Okk3l7TpYCggT--TZ-76" value="Access Token (JWT)" style="rounded=0;whiteSpace=wrap;html=1;fontSize=9;verticalAlign=middle;dashed=1;dashPattern=1 4;" vertex="1" parent="1">
          <mxGeometry x="10" y="436.5" width="91" height="15" as="geometry" />
        </mxCell>
        <mxCell id="r72Okk3l7TpYCggT--TZ-77" value="ID Token (JWT)" style="rounded=0;whiteSpace=wrap;html=1;fontSize=9;verticalAlign=middle;dashed=1;dashPattern=1 4;" vertex="1" parent="1">
          <mxGeometry x="10" y="528.5" width="91" height="15" as="geometry" />
        </mxCell>
        <mxCell id="r72Okk3l7TpYCggT--TZ-78" value="AWS Credentials" style="rounded=0;whiteSpace=wrap;html=1;fontSize=9;verticalAlign=middle;dashed=1;dashPattern=1 4;" vertex="1" parent="1">
          <mxGeometry x="10" y="552.5" width="91" height="15" as="geometry" />
        </mxCell>
        <mxCell id="r72Okk3l7TpYCggT--TZ-79" style="rounded=0;orthogonalLoop=1;jettySize=auto;html=1;dashed=1;endArrow=openThin;endFill=0;dashPattern=1 1;exitX=0;exitY=0.5;exitDx=0;exitDy=0;startArrow=none;startFill=0;" edge="1" parent="1">
          <mxGeometry relative="1" as="geometry">
            <mxPoint x="101" y="505.7054263565892" as="targetPoint" />
            <mxPoint x="120" y="506" as="sourcePoint" />
          </mxGeometry>
        </mxCell>
        <mxCell id="r72Okk3l7TpYCggT--TZ-80" style="rounded=0;orthogonalLoop=1;jettySize=auto;html=1;dashed=1;endArrow=openThin;endFill=0;dashPattern=1 1;exitX=0;exitY=0.5;exitDx=0;exitDy=0;startArrow=none;startFill=0;" edge="1" parent="1">
          <mxGeometry relative="1" as="geometry">
            <mxPoint x="101" y="596" as="targetPoint" />
            <mxPoint x="120" y="596" as="sourcePoint" />
          </mxGeometry>
        </mxCell>
        <mxCell id="r72Okk3l7TpYCggT--TZ-81" style="rounded=0;orthogonalLoop=1;jettySize=auto;html=1;dashed=1;endArrow=openThin;endFill=0;dashPattern=1 1;exitX=0;exitY=0.5;exitDx=0;exitDy=0;startArrow=none;startFill=0;" edge="1" parent="1">
          <mxGeometry relative="1" as="geometry">
            <mxPoint x="101" y="621" as="targetPoint" />
            <mxPoint x="120" y="621" as="sourcePoint" />
          </mxGeometry>
        </mxCell>
        <mxCell id="r72Okk3l7TpYCggT--TZ-82" style="rounded=0;orthogonalLoop=1;jettySize=auto;html=1;dashed=1;endArrow=none;endFill=0;dashPattern=1 1;exitX=0;exitY=0.5;exitDx=0;exitDy=0;startArrow=openThin;startFill=0;" edge="1" parent="1">
          <mxGeometry relative="1" as="geometry">
            <mxPoint x="101" y="571" as="targetPoint" />
            <mxPoint x="120" y="571" as="sourcePoint" />
          </mxGeometry>
        </mxCell>
        <mxCell id="r72Okk3l7TpYCggT--TZ-83" value="OAuth &amp;amp; OIDC with AWS Cognito - Workflow" style="text;html=1;align=center;verticalAlign=middle;whiteSpace=wrap;rounded=0;fontSize=15;fontStyle=1" vertex="1" parent="1">
          <mxGeometry y="1" width="350" height="30" as="geometry" />
        </mxCell>
        <mxCell id="r72Okk3l7TpYCggT--TZ-84" value="Author: Adam M. Lechnos" style="text;html=1;align=center;verticalAlign=middle;whiteSpace=wrap;rounded=0;fontSize=10;fontStyle=0" vertex="1" parent="1">
          <mxGeometry x="16" y="26" width="120" height="30" as="geometry" />
        </mxCell>
        <mxCell id="r72Okk3l7TpYCggT--TZ-86" value="Define&lt;br&gt;Authorizer &amp;amp; Scopes" style="ellipse;whiteSpace=wrap;html=1;fontSize=9;dashed=1;dashPattern=1 4;" vertex="1" parent="1">
          <mxGeometry x="977" y="191" width="104" height="40" as="geometry" />
        </mxCell>
        <mxCell id="r72Okk3l7TpYCggT--TZ-87" style="rounded=0;orthogonalLoop=1;jettySize=auto;html=1;dashed=1;endArrow=none;endFill=0;dashPattern=1 1;entryX=0.11;entryY=0;entryDx=0;entryDy=0;entryPerimeter=0;exitX=0.203;exitY=0.922;exitDx=0;exitDy=0;exitPerimeter=0;" edge="1" parent="1" source="r72Okk3l7TpYCggT--TZ-86" target="r72Okk3l7TpYCggT--TZ-26">
          <mxGeometry relative="1" as="geometry">
            <mxPoint x="957" y="241" as="targetPoint" />
            <mxPoint x="967" y="231" as="sourcePoint" />
          </mxGeometry>
        </mxCell>
        <mxCell id="r72Okk3l7TpYCggT--TZ-89" value="Use&lt;br&gt;Role Mapping" style="ellipse;whiteSpace=wrap;html=1;fontSize=9;dashed=1;dashPattern=1 4;" vertex="1" parent="1">
          <mxGeometry x="813" y="191" width="97" height="40" as="geometry" />
        </mxCell>
        <mxCell id="r72Okk3l7TpYCggT--TZ-90" style="rounded=0;orthogonalLoop=1;jettySize=auto;html=1;dashed=1;endArrow=none;endFill=0;entryX=0.37;entryY=0;entryDx=0;entryDy=0;entryPerimeter=0;dashPattern=1 1;exitX=0;exitY=1;exitDx=0;exitDy=0;" edge="1" parent="1" source="r72Okk3l7TpYCggT--TZ-89">
          <mxGeometry relative="1" as="geometry">
            <mxPoint x="797" y="251" as="targetPoint" />
            <mxPoint x="830" y="235" as="sourcePoint" />
          </mxGeometry>
        </mxCell>
        <mxCell id="r72Okk3l7TpYCggT--TZ-91" style="rounded=0;orthogonalLoop=1;jettySize=auto;html=1;dashed=1;endArrow=none;endFill=0;dashPattern=1 1;entryX=0.646;entryY=0.05;entryDx=0;entryDy=0;entryPerimeter=0;exitX=0.186;exitY=0.947;exitDx=0;exitDy=0;exitPerimeter=0;" edge="1" parent="1" source="r72Okk3l7TpYCggT--TZ-92" target="r72Okk3l7TpYCggT--TZ-13">
          <mxGeometry relative="1" as="geometry">
            <mxPoint x="647" y="194" as="targetPoint" />
            <mxPoint x="617" y="171" as="sourcePoint" />
          </mxGeometry>
        </mxCell>
        <mxCell id="r72Okk3l7TpYCggT--TZ-92" value="OAuth, OIDC, &lt;br&gt;SAML and Social" style="ellipse;whiteSpace=wrap;html=1;fontSize=9;dashed=1;dashPattern=1 4;" vertex="1" parent="1">
          <mxGeometry x="605" y="134" width="95" height="40" as="geometry" />
        </mxCell>
        <mxCell id="r72Okk3l7TpYCggT--TZ-93" value="OAuth flow" style="rounded=0;whiteSpace=wrap;html=1;fontSize=9;verticalAlign=middle;dashed=1;dashPattern=1 4;" vertex="1" parent="1">
          <mxGeometry x="10" y="366.5" width="91" height="15" as="geometry" />
        </mxCell>
        <mxCell id="r72Okk3l7TpYCggT--TZ-94" style="rounded=0;orthogonalLoop=1;jettySize=auto;html=1;dashed=1;endArrow=openThin;endFill=0;dashPattern=1 1;exitX=0;exitY=0.5;exitDx=0;exitDy=0;startArrow=openThin;startFill=0;" edge="1" parent="1">
          <mxGeometry relative="1" as="geometry">
            <mxPoint x="101" y="435.7054263565892" as="targetPoint" />
            <mxPoint x="120" y="436" as="sourcePoint" />
          </mxGeometry>
        </mxCell>
        <mxCell id="r72Okk3l7TpYCggT--TZ-97" value="Retreive Roles" style="html=1;verticalAlign=bottom;endArrow=block;edgeStyle=elbowEdgeStyle;elbow=vertical;curved=0;rounded=0;fontSize=10;" edge="1" parent="1">
          <mxGeometry relative="1" as="geometry">
            <mxPoint x="662" y="572" as="sourcePoint" />
            <Array as="points">
              <mxPoint x="747" y="572" />
            </Array>
            <mxPoint x="822" y="572" as="targetPoint" />
            <mxPoint as="offset" />
          </mxGeometry>
        </mxCell>
        <mxCell id="r72Okk3l7TpYCggT--TZ-98" value="Return Roles" style="html=1;verticalAlign=bottom;endArrow=none;dashed=1;endSize=8;edgeStyle=elbowEdgeStyle;elbow=vertical;curved=0;rounded=0;startArrow=open;startFill=0;endFill=0;fontSize=10;" edge="1" parent="1">
          <mxGeometry relative="1" as="geometry">
            <mxPoint x="822" y="596" as="targetPoint" />
            <Array as="points">
              <mxPoint x="747" y="596" />
            </Array>
            <mxPoint x="662" y="596" as="sourcePoint" />
          </mxGeometry>
        </mxCell>
        <mxCell id="r72Okk3l7TpYCggT--TZ-99" value="Request Access Token" style="html=1;verticalAlign=bottom;endArrow=block;edgeStyle=elbowEdgeStyle;elbow=vertical;curved=0;rounded=0;fontSize=10;" edge="1" parent="1" source="aM9ryv3xv72pqoxQDRHE-6" target="r72Okk3l7TpYCggT--TZ-5">
          <mxGeometry x="0.05" y="1" relative="1" as="geometry">
            <mxPoint x="340" y="391" as="sourcePoint" />
            <Array as="points">
              <mxPoint x="460" y="391" />
            </Array>
            <mxPoint x="460" y="392" as="targetPoint" />
            <mxPoint as="offset" />
          </mxGeometry>
        </mxCell>
        <mxCell id="r72Okk3l7TpYCggT--TZ-100" value="Return Access Token" style="html=1;verticalAlign=bottom;endArrow=none;dashed=1;endSize=8;edgeStyle=elbowEdgeStyle;elbow=vertical;curved=0;rounded=0;startArrow=open;startFill=0;endFill=0;fontSize=10;" edge="1" parent="1">
          <mxGeometry x="0.05" relative="1" as="geometry">
            <mxPoint x="485" y="414" as="targetPoint" />
            <Array as="points">
              <mxPoint x="410" y="414" />
            </Array>
            <mxPoint x="325" y="414" as="sourcePoint" />
            <mxPoint as="offset" />
          </mxGeometry>
        </mxCell>
        <mxCell id="r72Okk3l7TpYCggT--TZ-117" value="Example Scopes" style="shape=table;startSize=30;container=1;collapsible=0;childLayout=tableLayout;strokeColor=default;fontSize=16;" vertex="1" parent="1">
          <mxGeometry x="753" y="685" width="322" height="150" as="geometry" />
        </mxCell>
        <mxCell id="r72Okk3l7TpYCggT--TZ-118" value="" style="shape=tableRow;horizontal=0;startSize=0;swimlaneHead=0;swimlaneBody=0;strokeColor=inherit;top=0;left=0;bottom=0;right=0;collapsible=0;dropTarget=0;fillColor=none;points=[[0,0.5],[1,0.5]];portConstraint=eastwest;fontSize=16;" vertex="1" parent="r72Okk3l7TpYCggT--TZ-117">
          <mxGeometry y="30" width="322" height="40" as="geometry" />
        </mxCell>
        <mxCell id="r72Okk3l7TpYCggT--TZ-119" value="finance" style="shape=partialRectangle;html=1;whiteSpace=wrap;connectable=0;strokeColor=inherit;overflow=hidden;fillColor=none;top=0;left=0;bottom=0;right=0;pointerEvents=1;fontSize=16;" vertex="1" parent="r72Okk3l7TpYCggT--TZ-118">
          <mxGeometry width="107" height="40" as="geometry">
            <mxRectangle width="107" height="40" as="alternateBounds" />
          </mxGeometry>
        </mxCell>
        <mxCell id="r72Okk3l7TpYCggT--TZ-120" value="Example_API" style="shape=partialRectangle;html=1;whiteSpace=wrap;connectable=0;strokeColor=inherit;overflow=hidden;fillColor=none;top=0;left=0;bottom=0;right=0;pointerEvents=1;fontSize=16;" vertex="1" parent="r72Okk3l7TpYCggT--TZ-118">
          <mxGeometry x="107" width="108" height="40" as="geometry">
            <mxRectangle width="108" height="40" as="alternateBounds" />
          </mxGeometry>
        </mxCell>
        <mxCell id="r72Okk3l7TpYCggT--TZ-121" value="\finance\* methods" style="shape=partialRectangle;html=1;whiteSpace=wrap;connectable=0;strokeColor=inherit;overflow=hidden;fillColor=none;top=0;left=0;bottom=0;right=0;pointerEvents=1;fontSize=16;" vertex="1" parent="r72Okk3l7TpYCggT--TZ-118">
          <mxGeometry x="215" width="107" height="40" as="geometry">
            <mxRectangle width="107" height="40" as="alternateBounds" />
          </mxGeometry>
        </mxCell>
        <mxCell id="r72Okk3l7TpYCggT--TZ-122" value="" style="shape=tableRow;horizontal=0;startSize=0;swimlaneHead=0;swimlaneBody=0;strokeColor=inherit;top=0;left=0;bottom=0;right=0;collapsible=0;dropTarget=0;fillColor=none;points=[[0,0.5],[1,0.5]];portConstraint=eastwest;fontSize=16;" vertex="1" parent="r72Okk3l7TpYCggT--TZ-117">
          <mxGeometry y="70" width="322" height="40" as="geometry" />
        </mxCell>
        <mxCell id="r72Okk3l7TpYCggT--TZ-123" value="premium" style="shape=partialRectangle;html=1;whiteSpace=wrap;connectable=0;strokeColor=inherit;overflow=hidden;fillColor=none;top=0;left=0;bottom=0;right=0;pointerEvents=1;fontSize=16;" vertex="1" parent="r72Okk3l7TpYCggT--TZ-122">
          <mxGeometry width="107" height="40" as="geometry">
            <mxRectangle width="107" height="40" as="alternateBounds" />
          </mxGeometry>
        </mxCell>
        <mxCell id="r72Okk3l7TpYCggT--TZ-124" value="Example_API" style="shape=partialRectangle;html=1;whiteSpace=wrap;connectable=0;strokeColor=inherit;overflow=hidden;fillColor=none;top=0;left=0;bottom=0;right=0;pointerEvents=1;fontSize=16;" vertex="1" parent="r72Okk3l7TpYCggT--TZ-122">
          <mxGeometry x="107" width="108" height="40" as="geometry">
            <mxRectangle width="108" height="40" as="alternateBounds" />
          </mxGeometry>
        </mxCell>
        <mxCell id="r72Okk3l7TpYCggT--TZ-125" value="\premium\*&lt;br&gt;methods" style="shape=partialRectangle;html=1;whiteSpace=wrap;connectable=0;strokeColor=inherit;overflow=hidden;fillColor=none;top=0;left=0;bottom=0;right=0;pointerEvents=1;fontSize=16;" vertex="1" parent="r72Okk3l7TpYCggT--TZ-122">
          <mxGeometry x="215" width="107" height="40" as="geometry">
            <mxRectangle width="107" height="40" as="alternateBounds" />
          </mxGeometry>
        </mxCell>
        <mxCell id="r72Okk3l7TpYCggT--TZ-126" value="" style="shape=tableRow;horizontal=0;startSize=0;swimlaneHead=0;swimlaneBody=0;strokeColor=inherit;top=0;left=0;bottom=0;right=0;collapsible=0;dropTarget=0;fillColor=none;points=[[0,0.5],[1,0.5]];portConstraint=eastwest;fontSize=16;" vertex="1" parent="r72Okk3l7TpYCggT--TZ-117">
          <mxGeometry y="110" width="322" height="40" as="geometry" />
        </mxCell>
        <mxCell id="r72Okk3l7TpYCggT--TZ-127" value="basic" style="shape=partialRectangle;html=1;whiteSpace=wrap;connectable=0;strokeColor=inherit;overflow=hidden;fillColor=none;top=0;left=0;bottom=0;right=0;pointerEvents=1;fontSize=16;" vertex="1" parent="r72Okk3l7TpYCggT--TZ-126">
          <mxGeometry width="107" height="40" as="geometry">
            <mxRectangle width="107" height="40" as="alternateBounds" />
          </mxGeometry>
        </mxCell>
        <mxCell id="r72Okk3l7TpYCggT--TZ-128" value="Example_API" style="shape=partialRectangle;html=1;whiteSpace=wrap;connectable=0;strokeColor=inherit;overflow=hidden;fillColor=none;top=0;left=0;bottom=0;right=0;pointerEvents=1;fontSize=16;" vertex="1" parent="r72Okk3l7TpYCggT--TZ-126">
          <mxGeometry x="107" width="108" height="40" as="geometry">
            <mxRectangle width="108" height="40" as="alternateBounds" />
          </mxGeometry>
        </mxCell>
        <mxCell id="r72Okk3l7TpYCggT--TZ-129" value="\basic\*&lt;br&gt;methods" style="shape=partialRectangle;html=1;whiteSpace=wrap;connectable=0;strokeColor=inherit;overflow=hidden;fillColor=none;top=0;left=0;bottom=0;right=0;pointerEvents=1;fontSize=16;" vertex="1" parent="r72Okk3l7TpYCggT--TZ-126">
          <mxGeometry x="215" width="107" height="40" as="geometry">
            <mxRectangle width="107" height="40" as="alternateBounds" />
          </mxGeometry>
        </mxCell>
        <mxCell id="r72Okk3l7TpYCggT--TZ-130" value="Example Scopes" style="shape=table;startSize=30;container=1;collapsible=0;childLayout=tableLayout;strokeColor=default;fontSize=12;" vertex="1" parent="1">
          <mxGeometry x="273" y="685" width="322" height="155" as="geometry" />
        </mxCell>
        <mxCell id="r72Okk3l7TpYCggT--TZ-131" value="" style="shape=tableRow;horizontal=0;startSize=0;swimlaneHead=0;swimlaneBody=0;strokeColor=inherit;top=0;left=0;bottom=0;right=0;collapsible=0;dropTarget=0;fillColor=none;points=[[0,0.5],[1,0.5]];portConstraint=eastwest;fontSize=16;" vertex="1" parent="r72Okk3l7TpYCggT--TZ-130">
          <mxGeometry y="30" width="322" height="45" as="geometry" />
        </mxCell>
        <mxCell id="r72Okk3l7TpYCggT--TZ-132" value="User Pool" style="shape=partialRectangle;html=1;whiteSpace=wrap;connectable=0;strokeColor=inherit;overflow=hidden;fillColor=none;top=0;left=0;bottom=0;right=0;pointerEvents=1;fontSize=12;" vertex="1" parent="r72Okk3l7TpYCggT--TZ-131">
          <mxGeometry width="107" height="45" as="geometry">
            <mxRectangle width="107" height="45" as="alternateBounds" />
          </mxGeometry>
        </mxCell>
        <mxCell id="r72Okk3l7TpYCggT--TZ-133" value="App Client" style="shape=partialRectangle;html=1;whiteSpace=wrap;connectable=0;strokeColor=inherit;overflow=hidden;fillColor=none;top=0;left=0;bottom=0;right=0;pointerEvents=1;fontSize=12;" vertex="1" parent="r72Okk3l7TpYCggT--TZ-131">
          <mxGeometry x="107" width="108" height="45" as="geometry">
            <mxRectangle width="108" height="45" as="alternateBounds" />
          </mxGeometry>
        </mxCell>
        <mxCell id="r72Okk3l7TpYCggT--TZ-134" value="&lt;font style=&quot;font-size: 12px;&quot;&gt;Attach Custom Scopes&lt;/font&gt;" style="shape=partialRectangle;html=1;whiteSpace=wrap;connectable=0;strokeColor=inherit;overflow=hidden;fillColor=none;top=0;left=0;bottom=0;right=0;pointerEvents=1;fontSize=10;" vertex="1" parent="r72Okk3l7TpYCggT--TZ-131">
          <mxGeometry x="215" width="107" height="45" as="geometry">
            <mxRectangle width="107" height="45" as="alternateBounds" />
          </mxGeometry>
        </mxCell>
        <mxCell id="r72Okk3l7TpYCggT--TZ-135" value="" style="shape=tableRow;horizontal=0;startSize=0;swimlaneHead=0;swimlaneBody=0;strokeColor=inherit;top=0;left=0;bottom=0;right=0;collapsible=0;dropTarget=0;fillColor=none;points=[[0,0.5],[1,0.5]];portConstraint=eastwest;fontSize=16;" vertex="1" parent="r72Okk3l7TpYCggT--TZ-130">
          <mxGeometry y="75" width="322" height="40" as="geometry" />
        </mxCell>
        <mxCell id="r72Okk3l7TpYCggT--TZ-136" value="&lt;font style=&quot;font-size: 12px;&quot;&gt;User Pool&lt;/font&gt;" style="shape=partialRectangle;html=1;whiteSpace=wrap;connectable=0;strokeColor=inherit;overflow=hidden;fillColor=none;top=0;left=0;bottom=0;right=0;pointerEvents=1;fontSize=16;" vertex="1" parent="r72Okk3l7TpYCggT--TZ-135">
          <mxGeometry width="107" height="40" as="geometry">
            <mxRectangle width="107" height="40" as="alternateBounds" />
          </mxGeometry>
        </mxCell>
        <mxCell id="r72Okk3l7TpYCggT--TZ-137" value="Resource Server" style="shape=partialRectangle;html=1;whiteSpace=wrap;connectable=0;strokeColor=inherit;overflow=hidden;fillColor=none;top=0;left=0;bottom=0;right=0;pointerEvents=1;fontSize=12;" vertex="1" parent="r72Okk3l7TpYCggT--TZ-135">
          <mxGeometry x="107" width="108" height="40" as="geometry">
            <mxRectangle width="108" height="40" as="alternateBounds" />
          </mxGeometry>
        </mxCell>
        <mxCell id="r72Okk3l7TpYCggT--TZ-138" value="Defined Custom Scopes" style="shape=partialRectangle;html=1;whiteSpace=wrap;connectable=0;strokeColor=inherit;overflow=hidden;fillColor=none;top=0;left=0;bottom=0;right=0;pointerEvents=1;fontSize=12;" vertex="1" parent="r72Okk3l7TpYCggT--TZ-135">
          <mxGeometry x="215" width="107" height="40" as="geometry">
            <mxRectangle width="107" height="40" as="alternateBounds" />
          </mxGeometry>
        </mxCell>
        <mxCell id="r72Okk3l7TpYCggT--TZ-139" value="" style="shape=tableRow;horizontal=0;startSize=0;swimlaneHead=0;swimlaneBody=0;strokeColor=inherit;top=0;left=0;bottom=0;right=0;collapsible=0;dropTarget=0;fillColor=none;points=[[0,0.5],[1,0.5]];portConstraint=eastwest;fontSize=16;" vertex="1" parent="r72Okk3l7TpYCggT--TZ-130">
          <mxGeometry y="115" width="322" height="40" as="geometry" />
        </mxCell>
        <mxCell id="r72Okk3l7TpYCggT--TZ-140" value="basic" style="shape=partialRectangle;html=1;whiteSpace=wrap;connectable=0;strokeColor=inherit;overflow=hidden;fillColor=none;top=0;left=0;bottom=0;right=0;pointerEvents=1;fontSize=16;" vertex="1" parent="r72Okk3l7TpYCggT--TZ-139">
          <mxGeometry width="107" height="40" as="geometry">
            <mxRectangle width="107" height="40" as="alternateBounds" />
          </mxGeometry>
        </mxCell>
        <mxCell id="r72Okk3l7TpYCggT--TZ-141" value="Example_API" style="shape=partialRectangle;html=1;whiteSpace=wrap;connectable=0;strokeColor=inherit;overflow=hidden;fillColor=none;top=0;left=0;bottom=0;right=0;pointerEvents=1;fontSize=16;" vertex="1" parent="r72Okk3l7TpYCggT--TZ-139">
          <mxGeometry x="107" width="108" height="40" as="geometry">
            <mxRectangle width="108" height="40" as="alternateBounds" />
          </mxGeometry>
        </mxCell>
        <mxCell id="r72Okk3l7TpYCggT--TZ-142" value="\basic\*&lt;br&gt;methods" style="shape=partialRectangle;html=1;whiteSpace=wrap;connectable=0;strokeColor=inherit;overflow=hidden;fillColor=none;top=0;left=0;bottom=0;right=0;pointerEvents=1;fontSize=16;" vertex="1" parent="r72Okk3l7TpYCggT--TZ-139">
          <mxGeometry x="215" width="107" height="40" as="geometry">
            <mxRectangle width="107" height="40" as="alternateBounds" />
          </mxGeometry>
        </mxCell>
      </root>
    </mxGraphModel>
  </diagram>
</mxfile>
